<?xml version="1.0" encoding="UTF-8" standalone="no"?>
<svg
   id="svg8"
   version="1.1"
   viewBox="0 0 34 34"
   height="34"
   width="34"
   sodipodi:docname="Hibernate.svg"
   inkscape:version="1.4.2 (ebf0e940d0, 2025-05-08)"
   xmlns:inkscape="http://www.inkscape.org/namespaces/inkscape"
   xmlns:sodipodi="http://sodipodi.sourceforge.net/DTD/sodipodi-0.dtd"
   xmlns="http://www.w3.org/2000/svg"
   xmlns:svg="http://www.w3.org/2000/svg"
   xmlns:rdf="http://www.w3.org/1999/02/22-rdf-syntax-ns#"
   xmlns:cc="http://creativecommons.org/ns#"
   xmlns:dc="http://purl.org/dc/elements/1.1/">
  <sodipodi:namedview
     id="namedview1"
     pagecolor="#ffffff"
     bordercolor="#111111"
     borderopacity="1"
     inkscape:showpageshadow="0"
     inkscape:pageopacity="0"
     inkscape:pagecheckerboard="1"
     inkscape:deskcolor="#d1d1d1"
     inkscape:zoom="13.941176"
     inkscape:cx="17"
     inkscape:cy="17"
     inkscape:window-width="1022"
     inkscape:window-height="892"
     inkscape:window-x="0"
     inkscape:window-y="0"
     inkscape:window-maximized="1"
     inkscape:current-layer="svg8" />
  <defs
     id="defs2" />
  <metadata
     id="metadata5">
    <rdf:RDF>
      <cc:Work
         rdf:about="">
        <dc:format>image/svg+xml</dc:format>
        <dc:type
           rdf:resource="http://purl.org/dc/dcmitype/StillImage" />
      </cc:Work>
    </rdf:RDF>
  </metadata>
  <path
     style="opacity:1;vector-effect:none;fill:#868686;fill-opacity:1;stroke:none;stroke-width:3;stroke-linecap:round;stroke-linejoin:round;stroke-miterlimit:4;stroke-dasharray:none;stroke-dashoffset:0;stroke-opacity:1;paint-order:stroke markers fill"
     d="M 17,1 C 8.163444,1 1,8.163444 1,17 1,25.836556 8.163444,33 17,33 25.836556,33 33,25.836556 33,17 33,8.163444 25.836556,1 17,1 Z m 0,1 C 25.284271,2 32,8.7157288 32,17 32,25.284271 25.284271,32 17,32 8.7157288,32 2,25.284271 2,17 2,8.7157288 8.7157288,2 17,2 Z"
     id="path831" />
  <path
     id="path816"
     d="M 17 11 C 13.686292 11 11 13.686292 11 17 C 11 20.313708 13.686292 23 17 23 C 20.313708 23 23 20.313708 23 17 C 23 13.686292 20.313708 11 17 11 z M 17 12 A 5 5 0 0 1 22 17 A 5 5 0 0 1 17 22 A 5 5 0 0 1 12 17 A 5 5 0 0 1 17 12 z "
     style="opacity:1;fill:#8b8b8b;fill-opacity:1;stroke:none;stroke-width:1.71428573;stroke-linecap:butt;stroke-linejoin:miter;stroke-miterlimit:4;stroke-dasharray:none;stroke-opacity:1" />
</svg>
